<?xml version="1.0" encoding="utf-8"?>
<!-- Generator: Adobe Illustrator 18.0.0, SVG Export Plug-In . SVG Version: 6.00 Build 0)  -->
<!DOCTYPE svg PUBLIC "-//W3C//DTD SVG 1.1//EN" "http://www.w3.org/Graphics/SVG/1.1/DTD/svg11.dtd">
<svg version="1.1" id="图层_1" xmlns="http://www.w3.org/2000/svg" xmlns:xlink="http://www.w3.org/1999/xlink" x="0px" y="0px"
	 viewBox="0 0 1024 1024" style="enable-background:new 0 0 1024 1024;" xml:space="preserve">
<style type="text/css">
	.st0{clip-path:url(#SVGID_2_);}
</style>
<g>
	<g>
		<defs>
			<rect id="SVGID_1_" x="205.28" y="157.88" width="599.44" height="709.12"/>
		</defs>
		<clipPath id="SVGID_2_">
			<use xlink:href="#SVGID_1_"  style="overflow:visible;"/>
		</clipPath>
		<path class="st0" d="M259.727,865.239c-29.574,0-53.636-24.061-53.636-53.639V212.659c0-29.579,24.062-53.64,53.636-53.64h326.698
			c14.564,0,26.415,11.851,26.415,26.418c0,14.564-11.851,26.414-26.415,26.414H259.727c-0.444,0-0.807,0.364-0.807,0.808v598.946
			c0,0.444,0.363,0.807,0.807,0.807h490.047c0.448,0,0.808-0.363,0.808-0.807V376.007c0-14.567,11.85-26.414,26.414-26.414
			c14.567,0,26.418,11.847,26.418,26.414L803.41,811.6c0,29.578-24.061,53.639-53.636,53.639H259.727z M395.85,674.669
			c-14.563,0-26.414-11.85-26.414-26.414c0-14.568,11.851-26.418,26.414-26.418h217.801c14.563,0,26.414,11.85,26.414,26.418
			c0,14.564-11.851,26.414-26.414,26.414H395.85z M395.85,538.545c-14.563,0-26.414-11.851-26.414-26.414
			c0-14.568,11.851-26.414,26.414-26.414h217.801c14.563,0,26.414,11.846,26.414,26.414c0,14.563-11.851,26.414-26.414,26.414
			H395.85z M395.85,402.422c-14.563,0-26.414-11.851-26.414-26.415c0-14.567,11.851-26.414,26.414-26.414h108.898
			c14.568,0,26.418,11.847,26.418,26.414c0,14.564-11.85,26.415-26.418,26.415H395.85z M615.247,375.776
			c-6.967,0-14.122-3.156-19.625-8.663c-10.058-10.058-11.572-24.902-3.381-33.095l169.737-169.736
			c3.404-3.409,8.187-5.282,13.466-5.282c6.971,0,14.123,3.156,19.629,8.659c4.891,4.895,7.929,11.047,8.547,17.329
			c0.614,6.221-1.222,11.82-5.167,15.765L628.716,370.489C625.308,373.898,620.525,375.776,615.247,375.776L615.247,375.776z
			 M615.247,375.776"/>
		<path class="st0" d="M775.442,159.807c6.758,0,13.702,3.072,19.057,8.428c9.741,9.736,11.256,24.073,3.381,31.946L628.14,369.918
			c-3.3,3.304-7.758,5.047-12.894,5.047c-6.754,0-13.701-3.068-19.053-8.424c-9.74-9.74-11.259-24.073-3.381-31.951l169.737-169.736
			C765.848,161.554,770.308,159.807,775.442,159.807 M586.352,159.827c0.024,0.004,0.05,0.004,0.073,0.004
			c14.119,0,25.607,11.483,25.607,25.606c0,14.119-11.487,25.603-25.607,25.603H259.727c-0.892,0-1.619,0.726-1.619,1.619v598.946
			c0,0.892,0.727,1.618,1.619,1.618h490.047c0.892,0,1.619-0.726,1.619-1.618V376.007c0-14.118,11.487-25.606,25.607-25.606
			c14.111,0,25.591,11.475,25.602,25.583c0,0.02,0,0.043,0,0.058V811.6c0,29.13-23.698,52.832-52.828,52.832H259.727
			c-29.13,0-52.828-23.702-52.828-52.832V212.659c0-29.13,23.698-52.832,52.828-52.832H586.352 M504.749,350.401
			c14.119,0,25.607,11.487,25.607,25.606c0,14.12-11.487,25.607-25.607,25.607H395.85c-14.119,0-25.603-11.487-25.603-25.607
			c0-14.118,11.484-25.606,25.603-25.606H504.749 M613.651,486.525c14.118,0,25.603,11.487,25.603,25.607
			c0,14.118-11.484,25.606-25.603,25.606H395.85c-14.119,0-25.603-11.487-25.603-25.606c0-14.12,11.484-25.607,25.603-25.607
			H613.651 M613.651,622.648c14.118,0,25.603,11.488,25.603,25.607c0,14.119-11.484,25.603-25.603,25.603H395.85
			c-14.119,0-25.603-11.484-25.603-25.603c0-14.118,11.484-25.607,25.603-25.607H613.651 M775.442,158.188
			c-5.324,0-10.328,1.808-14.041,5.522L591.669,333.446c-8.524,8.52-7.009,23.852,3.381,34.238c5.862,5.866,13.299,8.9,20.197,8.9
			c5.325,0,10.329-1.809,14.041-5.519L799.024,201.33c8.52-8.525,7.009-23.853-3.381-34.243
			C789.782,161.225,782.344,158.188,775.442,158.188L775.442,158.188z M749.774,158.208H259.727
			c-30.069,0-54.447,24.377-54.447,54.451V811.6c0,30.073,24.378,54.451,54.447,54.451h490.047c30.07,0,54.447-24.378,54.447-54.451
			V376.043c0-0.012,0-0.024,0-0.036c0-15.038-12.191-27.225-27.225-27.225c-15.036,0-27.226,12.187-27.226,27.225V811.6H259.727
			V212.659h326.698c15.035,0,27.226-12.188,27.226-27.226c0-15.035-12.191-27.225-27.226-27.225h163.412
			C749.817,158.211,749.794,158.208,749.774,158.208L749.774,158.208z M504.749,348.782H395.85
			c-15.035,0-27.225,12.187-27.225,27.225c0,15.035,12.191,27.226,27.225,27.226h108.898c15.038,0,27.226-12.191,27.226-27.226
			C531.975,360.969,519.787,348.782,504.749,348.782L504.749,348.782z M613.651,484.905H395.85
			c-15.035,0-27.225,12.188-27.225,27.226c0,15.034,12.191,27.225,27.225,27.225h217.801c15.034,0,27.225-12.191,27.225-27.225
			C640.876,497.093,628.685,484.905,613.651,484.905L613.651,484.905z M613.651,621.03H395.85
			c-15.035,0-27.225,12.187-27.225,27.225c0,15.034,12.191,27.225,27.225,27.225h217.801c15.034,0,27.225-12.191,27.225-27.225
			C640.876,633.216,628.685,621.03,613.651,621.03L613.651,621.03z M613.651,621.03"/>
	</g>
</g>
</svg>
