<?xml version="1.0" encoding="utf-8"?>
<!-- Generator: Adobe Illustrator 18.0.0, SVG Export Plug-In . SVG Version: 6.00 Build 0)  -->
<!DOCTYPE svg PUBLIC "-//W3C//DTD SVG 1.1//EN" "http://www.w3.org/Graphics/SVG/1.1/DTD/svg11.dtd">
<svg version="1.1" id="图层_1" xmlns="http://www.w3.org/2000/svg" xmlns:xlink="http://www.w3.org/1999/xlink" x="0px" y="0px"
	 viewBox="0 0 1024 1024" style="enable-background:new 0 0 1024 1024;" xml:space="preserve">
<style type="text/css">
	.st0{clip-path:url(#SVGID_2_);fill:#333333;}
</style>
<g>
	<g>
		<defs>
			<rect id="SVGID_1_" x="182.999" y="184.992" width="669.84" height="656.88"/>
		</defs>
		<clipPath id="SVGID_2_">
			<use xlink:href="#SVGID_1_"  style="overflow:visible;"/>
		</clipPath>
		<path class="st0" d="M802.042,799.951c0,2.457-1.914,4.371-4.371,4.371H664.96v35.496h132.711
			c21.848,0,39.598-17.746,39.598-39.594V667.513h-35.5v132.438H802.042z M218.499,799.951V224.873c0-2.457,1.91-4.367,4.367-4.367
			h575.078c2.457,0,4.371,1.91,4.371,4.367v132.711h35.496V224.873c0-21.844-17.746-39.594-39.593-39.594H222.593
			c-21.844,0-39.594,17.75-39.594,39.594v575.078c0,21.847,17.75,39.597,39.594,39.597h132.711v-35.5H222.593
			C220.409,804.322,218.499,802.138,218.499,799.951L218.499,799.951z M218.499,799.951"/>
		<path class="st0" d="M644.483,336.83c6.825-7.098,6.825-18.293-0.273-25.121c-6.828-6.828-18.297-6.828-25.125,0.273
			L465.624,467.631l-75.367-74.547L287.311,499.853c-6.828,7.098-6.554,18.293,0.547,25.121c3.547,3.278,7.918,4.914,12.286,4.914
			c4.644,0,9.285-1.91,12.835-5.461l78.098-81.101l75.094,74.273L644.483,336.83z M824.159,464.9
			c-37.137-37.137-97.484-37.137-134.348,0L461.8,692.912l-13.653,148l148-13.653l228.012-228.011
			C861.296,562.111,861.296,502.037,824.159,464.9L824.159,464.9z M580.311,793.4l-92.843,8.465l8.465-92.844l173.398-173.398
			l84.379,84.379L580.311,793.4z M799.311,574.4l-20.753,20.754l-84.379-84.379l20.754-20.754c23.211-23.211,61.168-23.211,84.378,0
			C822.522,513.232,822.522,550.916,799.311,574.4L799.311,574.4z M799.311,574.4"/>
	</g>
</g>
</svg>
