<?xml version="1.0" encoding="utf-8"?>
<!-- Generator: Adobe Illustrator 18.0.0, SVG Export Plug-In . SVG Version: 6.00 Build 0)  -->
<!DOCTYPE svg PUBLIC "-//W3C//DTD SVG 1.1//EN" "http://www.w3.org/Graphics/SVG/1.1/DTD/svg11.dtd">
<svg version="1.1" id="图层_1" xmlns="http://www.w3.org/2000/svg" xmlns:xlink="http://www.w3.org/1999/xlink" x="0px" y="0px"
	 viewBox="0 0 1024 1024" style="enable-background:new 0 0 1024 1024;" xml:space="preserve">
<style type="text/css">
	.st0{clip-path:url(#SVGID_2_);}
</style>
<g>
	<path d="M232.542,219.734l558.418-0.273v397.586h38.23V219.461c0-21.028-17.203-37.957-38.5-37.957H232.542
		c-21.027,0-38.504,16.929-38.504,37.957v583.543c0,21.027,17.203,37.957,38.504,37.957h333.141V802.73l-333.141,0.274V219.734z
		 M232.542,219.734"/>
	<path d="M678.729,348.894H404.3c-10.649,0-19.114,8.465-19.114,19.114c0,10.648,8.465,19.117,19.114,19.117h274.429
		c10.653,0,19.118-8.469,19.118-19.117C697.847,357.359,689.382,348.894,678.729,348.894L678.729,348.894z M697.847,511.367
		c0-10.648-8.465-19.113-19.118-19.113H404.3c-10.649,0-19.114,8.465-19.114,19.113c0,10.652,8.465,19.117,19.114,19.117h274.429
		C689.382,530.484,697.847,521.746,697.847,511.367L697.847,511.367z M697.847,511.367"/>
	<path d="M308.999,368.008c0,8.586,4.527,16.519,11.879,20.812c7.351,4.293,16.406,4.293,23.758,0
		c7.347-4.293,11.879-12.226,11.879-20.812c0-8.586-4.532-16.516-11.879-20.809c-7.352-4.293-16.407-4.293-23.758,0
		C313.526,351.492,308.999,359.422,308.999,368.008L308.999,368.008z M308.999,368.008"/>
	<path d="M308.999,511.367c0,8.586,4.527,16.52,11.879,20.812c7.351,4.293,16.406,4.293,23.758,0
		c7.347-4.292,11.879-12.226,11.879-20.812c0-8.582-4.532-16.516-11.879-20.809c-7.352-4.293-16.407-4.293-23.758,0
		C313.526,494.851,308.999,502.785,308.999,511.367L308.999,511.367z M308.999,511.367"/>
	<g>
		<defs>
			<rect id="SVGID_1_" x="194.038" y="180.677" width="660" height="670.8"/>
		</defs>
		<clipPath id="SVGID_2_">
			<use xlink:href="#SVGID_1_"  style="overflow:visible;"/>
		</clipPath>
		<path class="st0" d="M308.999,654.726c0,8.586,4.527,16.52,11.879,20.813c7.351,4.293,16.406,4.293,23.758,0
			c7.347-4.293,11.879-12.227,11.879-20.813c0-8.582-4.532-16.515-11.879-20.808c-7.352-4.293-16.407-4.293-23.758,0
			C313.526,638.211,308.999,646.144,308.999,654.726L308.999,654.726z M308.999,654.726"/>
		<path class="st0" d="M404.3,635.613c-10.649,0-19.114,8.465-19.114,19.113c0,10.653,8.465,19.118,19.114,19.118h119.328
			c10.652,0,19.117-8.465,19.117-19.118c0-10.648-8.465-19.113-19.117-19.113H404.3z M846.393,664.012
			c-7.917-6.825-19.933-6.008-27.031,1.914l-109.5,127.246l-52.976-55.977c-7.098-7.648-19.387-7.918-27.036-0.82
			c-7.644,7.101-7.917,19.387-0.816,27.035l82.192,87.105l137.351-159.468C855.405,683.129,854.311,671.113,846.393,664.012
			L846.393,664.012z M846.393,664.012"/>
	</g>
</g>
</svg>
