<?xml version="1.0" encoding="utf-8"?>
<!-- Generator: Adobe Illustrator 18.0.0, SVG Export Plug-In . SVG Version: 6.00 Build 0)  -->
<!DOCTYPE svg PUBLIC "-//W3C//DTD SVG 1.1//EN" "http://www.w3.org/Graphics/SVG/1.1/DTD/svg11.dtd">
<svg version="1.1" id="图层_1" xmlns="http://www.w3.org/2000/svg" xmlns:xlink="http://www.w3.org/1999/xlink" x="0px" y="0px"
	 viewBox="0 0 1024 1024" style="enable-background:new 0 0 1024 1024;" xml:space="preserve">
<g>
	<path d="M748.984,215.577c28.782,0,52.145,23.245,52.145,51.877v242.067L514.617,803.461h8.124H313.885
		c-28.804,0-52.131-23.14-52.131-51.701V215.577h-17.401H748.984z M226.955,180.995V751.76c0,47.675,38.918,86.284,86.93,86.284
		H530.04l5.114-5.172l295.786-299.111l4.989-5.043V267.454c0-47.721-38.933-86.459-86.944-86.459H226.955z M226.955,180.995"/>
	<path d="M783.355,649.114l65.223,65.222l13.407,14.334l71.691-72.237l-93.475-94.012l-70.33,73.752L783.355,649.114z
		 M885.704,653.995l-25.996,26.161l-43.619-42.067l25.137-27.304L885.704,653.995z M885.704,653.995"/>
	<path d="M779.027,625.812l-192.32,192.321l-1.02,5.093l-17.149,85.749l-5.043,25.223l25.224-5.042l85.749-17.153l5.093-1.017
		L884.005,706.54L871.88,694.41l-68.603-68.598l-12.125-12.125L779.027,625.812z M790.948,662.571l44.64,44.058L661.864,878.37
		l-55.633,12.093l13.852-57.192L790.948,662.571z M790.948,662.571"/>
	<path d="M324.484,469.453h397.89c9.611,0,17.401-7.172,17.401-16.025c0-8.85-7.79-16.026-17.401-16.026h-397.89
		c-9.611,0-17.401,7.176-17.401,16.026C307.083,462.282,314.873,469.453,324.484,469.453L324.484,469.453z M324.484,469.453"/>
	<path d="M324.484,357.276h397.89c9.611,0,17.401-7.172,17.401-16.026c0-8.85-7.79-16.026-17.401-16.026h-397.89
		c-9.611,0-17.401,7.176-17.401,16.026C307.083,350.103,314.873,357.276,324.484,357.276L324.484,357.276z M324.484,357.276"/>
</g>
</svg>
