<?xml version="1.0" encoding="utf-8"?>
<!-- Generator: Adobe Illustrator 18.0.0, SVG Export Plug-In . SVG Version: 6.00 Build 0)  -->
<!DOCTYPE svg PUBLIC "-//W3C//DTD SVG 1.1//EN" "http://www.w3.org/Graphics/SVG/1.1/DTD/svg11.dtd">
<svg version="1.1" id="图层_1" xmlns="http://www.w3.org/2000/svg" xmlns:xlink="http://www.w3.org/1999/xlink" x="0px" y="0px"
	 viewBox="0 0 1024 1024" style="enable-background:new 0 0 1024 1024;" xml:space="preserve">
<g>
	<path d="M753.935,221.626c28.184,0,51.015,22.326,51.015,49.867v487.249l4.753-11.549L699.181,859.677l12.249-5.104H311.83
		c-28.124,0-50.991-22.43-50.991-49.97V204.971l-17.002,16.656H753.935z M226.833,188.315v616.288
		c0,45.931,38.082,83.281,84.996,83.281h406.836l5.016-5.103l110.522-112.487l4.754-4.837V271.493
		c0-45.95-38.068-83.178-85.024-83.178H226.833z M226.833,188.315"/>
	<path d="M685.981,671.351c-28.228,0-51.065,22.253-51.065,49.94v99.968c0,9.2,7.612,16.658,17.003,16.658
		s17.003-7.459,17.003-16.658v-99.968c0-9.25,7.572-16.626,17.059-16.626h76.46c9.39,0,17.003-7.459,17.003-16.655
		c0-9.201-7.612-16.659-17.003-16.659H685.981z M685.981,671.351"/>
	<path d="M712.681,338.223c9.394,0,17.006-7.459,17.006-16.656c0-9.2-7.612-16.656-17.006-16.656h-349.82
		c-9.39,0-17.003,7.456-17.003,16.656c0,9.197,7.612,16.656,17.003,16.656H712.681z M712.681,338.223"/>
	<path d="M712.681,438.16c9.394,0,17.006-7.455,17.006-16.656c0-9.2-7.612-16.656-17.006-16.656h-349.82
		c-9.39,0-17.003,7.456-17.003,16.656c0,9.201,7.612,16.656,17.003,16.656H712.681z M712.681,438.16"/>
	<path d="M712.681,554.757c9.394,0,17.006-7.459,17.006-16.655c0-9.201-7.612-16.659-17.006-16.659h-349.82
		c-9.39,0-17.003,7.458-17.003,16.659c0,9.196,7.612,16.655,17.003,16.655H712.681z M712.681,554.757"/>
</g>
</svg>
