<?xml version="1.0" encoding="utf-8"?>
<!-- Generator: Adobe Illustrator 18.0.0, SVG Export Plug-In . SVG Version: 6.00 Build 0)  -->
<!DOCTYPE svg PUBLIC "-//W3C//DTD SVG 1.1//EN" "http://www.w3.org/Graphics/SVG/1.1/DTD/svg11.dtd">
<svg version="1.1" id="图层_1" xmlns="http://www.w3.org/2000/svg" xmlns:xlink="http://www.w3.org/1999/xlink" x="0px" y="0px"
	 viewBox="0 0 1024 1024" style="enable-background:new 0 0 1024 1024;" xml:space="preserve">
<style type="text/css">
	.st0{clip-path:url(#SVGID_2_);}
</style>
<g>
	<g>
		<defs>
			<rect id="SVGID_1_" x="226.165" y="178.918" width="574.101" height="656.765"/>
		</defs>
		<clipPath id="SVGID_2_">
			<use xlink:href="#SVGID_1_"  style="overflow:visible;"/>
		</clipPath>
		<path class="st0" d="M795.598,355.282c-0.873-0.816-2.489-2.257-4.763-4.375c-3.781-3.525-8.011-7.419-12.578-11.649
			c-13.051-12.091-26.213-24.161-38.656-35.451c-1.404-1.276-1.404-1.266-2.812-2.542c-16.604-15.03-30.455-27.282-40.69-35.918
			c-5.989-5.051-10.703-8.834-14.169-11.33c-2.297-1.656-4.166-2.849-6.008-3.721c-2.32-1.101-4.469-1.768-7.523-1.711
			c-8.164,0.151-14.701,6.735-14.701,14.987v131.921h117.255v410.392H404.49c-24.323,0-43.93-19.911-43.93-44.196V278.239h249.136
			c8.093,0,14.657-6.739,14.657-14.828c0-8.09-6.564-14.828-14.657-14.828H330.903v468.329h-36.158
			c-22.716,0-41.094-17.984-41.094-40.225V205.817h390.586c22.767,0,41.189,18.042,41.189,40.283v2.482h27.589V246.1
			c0-37.114-30.853-67.182-68.779-67.182H226.061v497.768c0,37.096,30.792,67.124,68.684,67.124h36.158v17.88
			c0,40.481,33.092,73.166,73.587,73.166h395.433v-469.02h0.296C800.218,362.388,798.676,358.164,795.598,355.282L795.598,355.282z
			 M682.667,365.837V292.68c9.655,7.918,20.897,18.187,34.284,30.308c1.398,1.266,1.475,1.266,2.869,2.529
			c12.36,11.215,25.492,23.1,38.471,35.126c1.987,1.839,3.941,3.813,5.789,5.194H682.667z M682.667,365.837"/>
	</g>
	<path d="M720.555,456.879H438.013c-7.584,0-13.734,6.022-13.734,13.452s6.15,13.452,13.734,13.452h282.542
		c7.588,0,13.737-6.022,13.737-13.452S728.143,456.879,720.555,456.879L720.555,456.879z M720.555,456.879"/>
	<path d="M720.555,537.58H438.013c-7.584,0-13.734,6.018-13.734,13.451c0,7.429,6.15,13.447,13.734,13.447h282.542
		c7.588,0,13.737-6.018,13.737-13.447C734.292,543.598,728.143,537.58,720.555,537.58L720.555,537.58z M720.555,537.58"/>
	<path d="M720.555,631.385H438.013c-7.584,0-13.734,6.018-13.734,13.451c0,7.43,6.15,13.448,13.734,13.448h282.542
		c7.588,0,13.737-6.021,13.737-13.448C734.292,637.403,728.143,631.385,720.555,631.385L720.555,631.385z M720.555,631.385"/>
</g>
</svg>
