<?xml version="1.0" encoding="utf-8"?>
<!-- Generator: Adobe Illustrator 18.0.0, SVG Export Plug-In . SVG Version: 6.00 Build 0)  -->
<!DOCTYPE svg PUBLIC "-//W3C//DTD SVG 1.1//EN" "http://www.w3.org/Graphics/SVG/1.1/DTD/svg11.dtd">
<svg version="1.1" id="图层_1" xmlns="http://www.w3.org/2000/svg" xmlns:xlink="http://www.w3.org/1999/xlink" x="0px" y="0px"
	 viewBox="0 0 1024 1024" style="enable-background:new 0 0 1024 1024;" xml:space="preserve">
<style type="text/css">
	.st0{clip-path:url(#SVGID_2_);}
</style>
<g>
	<path d="M472.07,473.101c0-51.172-41.479-92.655-92.651-92.655s-92.651,41.483-92.651,92.655c0,51.172,41.479,92.651,92.651,92.651
		S472.07,524.272,472.07,473.101L472.07,473.101z M323.827,473.101c0-30.704,24.889-55.594,55.593-55.594
		s55.593,24.89,55.593,55.594c0,30.703-24.889,55.593-55.593,55.593S323.827,503.804,323.827,473.101L323.827,473.101z
		 M323.827,473.101"/>
	<g>
		<defs>
			<rect id="SVGID_1_" x="147.895" y="271.893" width="741.803" height="541.803"/>
		</defs>
		<clipPath id="SVGID_2_">
			<use xlink:href="#SVGID_1_"  style="overflow:visible;"/>
		</clipPath>
		<path class="st0" d="M242.474,663.811v19.302h299.84v-19.302c0-71.982-69.476-135.118-149.92-135.118
			c-4.793,0-9.561,0.202-14.293,0.604c-10.313,0.877-17.983,10.204-17.132,20.825c0.852,10.624,4.581,14.279,14.894,13.402
			c3.704-0.314,12.767,3.771,16.531,3.771c60.714,0,112.437,32.803,112.437,77.213H279.953c0-13.671,14.675-38.956,42.219-57.087
			c8.72-5.74,11.272-17.676,5.698-26.657c-5.574-8.985-17.16-11.614-25.882-5.871C264.087,579.841,242.474,617.072,242.474,663.811
			L242.474,663.811z M242.474,663.811"/>
		<path class="st0" d="M240.576,776.429c-30.81,0-55.703-24.419-55.703-54.699V308.753h612.005
			c30.633,0,55.533,24.465,55.533,54.522v357.179c0,10.052,8.303,18.202,18.541,18.202c10.243,0,18.542-8.151,18.542-18.202V363.275
			c0-50.15-41.494-90.923-92.616-90.923H147.787V721.73c0,50.387,41.505,91.097,92.79,91.097h567.517
			c10.242,0,18.545-8.147,18.545-18.199c0-10.052-8.303-18.199-18.545-18.199H240.576z M240.576,776.429"/>
	</g>
	<path d="M778.7,473.101c9.751,0,17.658-6.914,17.658-15.442c0-8.528-7.907-15.442-17.658-15.442H566.938
		c-9.751,0-17.655,6.914-17.655,15.442c0,8.529,7.904,15.442,17.655,15.442H778.7z M778.7,473.101"/>
	<path d="M731.978,550.31c9.971,0,18.055-6.914,18.055-15.442c0-8.528-8.084-15.442-18.055-15.442h-164.64
		c-9.971,0-18.055,6.914-18.055,15.442c0,8.529,8.084,15.442,18.055,15.442H731.978z M731.978,550.31"/>
</g>
</svg>
