<?xml version="1.0" encoding="utf-8"?>
<!-- Generator: Adobe Illustrator 18.0.0, SVG Export Plug-In . SVG Version: 6.00 Build 0)  -->
<!DOCTYPE svg PUBLIC "-//W3C//DTD SVG 1.1//EN" "http://www.w3.org/Graphics/SVG/1.1/DTD/svg11.dtd">
<svg version="1.1" id="图层_1" xmlns="http://www.w3.org/2000/svg" xmlns:xlink="http://www.w3.org/1999/xlink" x="0px" y="0px"
	 viewBox="0 0 1024 1024" style="enable-background:new 0 0 1024 1024;" xml:space="preserve">
<style type="text/css">
	.st0{fill-rule:evenodd;clip-rule:evenodd;}
</style>
<g>
	<polygon class="st0" points="204.95,202.528 281.067,202.528 281.067,278.645 204.95,278.645 204.95,202.528 204.95,202.528 	"/>
	<polygon class="st0" points="395.242,202.528 813.883,202.528 813.883,278.645 395.242,278.645 395.242,202.528 395.242,202.528 	
		"/>
	<polygon class="st0" points="204.95,468.936 281.067,468.936 281.067,545.053 204.95,545.053 204.95,468.936 204.95,468.936 	"/>
	<polygon class="st0" points="395.242,468.936 813.883,468.936 813.883,545.053 395.242,545.053 395.242,468.936 395.242,468.936 	
		"/>
	<polygon class="st0" points="204.95,735.345 281.067,735.345 281.067,811.461 204.95,811.461 204.95,735.345 204.95,735.345 	"/>
	<polygon class="st0" points="395.242,735.345 813.883,735.345 813.883,811.461 395.242,811.461 395.242,735.345 395.242,735.345 	
		"/>
</g>
</svg>
