<?xml version="1.0" encoding="utf-8"?>
<!-- Generator: Adobe Illustrator 18.0.0, SVG Export Plug-In . SVG Version: 6.00 Build 0)  -->
<!DOCTYPE svg PUBLIC "-//W3C//DTD SVG 1.1//EN" "http://www.w3.org/Graphics/SVG/1.1/DTD/svg11.dtd">
<svg version="1.1" id="图层_1" xmlns="http://www.w3.org/2000/svg" xmlns:xlink="http://www.w3.org/1999/xlink" x="0px" y="0px"
	 viewBox="0 0 1024 1024" style="enable-background:new 0 0 1024 1024;" xml:space="preserve">
<style type="text/css">
	.st0{fill-rule:evenodd;clip-rule:evenodd;}
</style>
<g>
	<path class="st0" d="M679.182,211.516c-8.711-4.912-19.018-6.159-28.648-3.464c-9.631,2.694-17.795,9.107-22.692,17.827
		c-10.184,18.184-3.725,41.225,14.45,51.331c95.142,53.385,154.22,154.219,154.22,263.201
		c0,166.241-135.278,301.528-301.519,301.528S193.465,706.651,193.465,540.41c0.022-110.45,60.367-212.07,157.336-264.951
		c8.782-4.771,15.305-12.841,18.129-22.429c2.823-9.589,1.716-19.906-3.079-28.676c-4.757-8.796-12.827-15.332-22.42-18.158
		c-9.592-2.826-19.917-1.712-28.684,3.1C193.479,275.313,118.006,402.347,118.022,540.42c0,207.831,169.052,376.961,376.971,376.961
		c207.84,0,376.971-169.13,376.971-376.961C871.963,404.218,798.113,278.211,679.182,211.516L679.182,211.516z"/>
	<path class="st0" d="M496.655,608.246c20.805,0.019,37.692-16.825,37.726-37.63V144.821c0.002-10.006-3.972-19.602-11.048-26.676
		c-7.076-7.075-16.673-11.047-26.678-11.041c-10.004-0.002-19.599,3.971-26.673,11.044c-7.074,7.074-11.047,16.669-11.044,26.673
		v425.795C458.971,591.418,475.852,608.26,496.655,608.246L496.655,608.246z"/>
</g>
</svg>
