<?xml version="1.0" encoding="utf-8"?>
<!-- Generator: Adobe Illustrator 18.0.0, SVG Export Plug-In . SVG Version: 6.00 Build 0)  -->
<!DOCTYPE svg PUBLIC "-//W3C//DTD SVG 1.1//EN" "http://www.w3.org/Graphics/SVG/1.1/DTD/svg11.dtd">
<svg version="1.1" id="图层_1" xmlns="http://www.w3.org/2000/svg" xmlns:xlink="http://www.w3.org/1999/xlink" x="0px" y="0px"
	 viewBox="0 0 1024 1024" style="enable-background:new 0 0 1024 1024;" xml:space="preserve">
<g>
	<g>
		<path d="M506.785,442.13L280.173,215.519c-9.661-9.718-23.042-15.734-37.826-15.734c-14.756,0-28.12,5.998-37.773,15.685
			c-9.709,9.661-15.715,23.029-15.715,37.803c0,14.77,6.005,28.138,15.711,37.799l226.707,226.612l-226.66,226.612
			c-9.717,9.661-15.732,23.038-15.732,37.821c0,14.761,5.993,28.121,15.685,37.777c9.661,9.705,23.029,15.71,37.803,15.71
			c14.77,0,28.138-6.005,37.794-15.706l226.612-226.708l226.612,226.612c21.038,21.033,54.753,20.893,75.599,0.044
			c9.705-9.656,15.714-23.026,15.714-37.8c0-14.769-6.005-28.138-15.71-37.799L582.287,517.684l226.612-226.612
			c9.718-9.661,15.737-23.042,15.737-37.826c0-14.755-5.998-28.12-15.689-37.773c-9.661-9.709-23.03-15.715-37.8-15.715
			c-14.773,0-28.142,6.005-37.799,15.711L506.781,442.178L506.785,442.13z M506.785,442.13"/>
	</g>
</g>
</svg>
