<?xml version="1.0" encoding="utf-8"?>
<!-- Generator: Adobe Illustrator 18.0.0, SVG Export Plug-In . SVG Version: 6.00 Build 0)  -->
<!DOCTYPE svg PUBLIC "-//W3C//DTD SVG 1.1//EN" "http://www.w3.org/Graphics/SVG/1.1/DTD/svg11.dtd">
<svg version="1.1" id="图层_1" xmlns="http://www.w3.org/2000/svg" xmlns:xlink="http://www.w3.org/1999/xlink" x="0px" y="0px"
	 viewBox="0 0 1024 1024" style="enable-background:new 0 0 1024 1024;" xml:space="preserve">
<g>
	<g>
		<path d="M365.471,910.175c-11.416,0-22.832-4.359-31.524-13.083c-17.359-17.412-17.298-45.592,0.114-62.948l326.79-325.689
			c3.246-3.243,3.884-6.734,3.853-9.099c-0.026-2.404-0.811-5.952-4.258-9.186L335.078,186.071
			c-17.966-16.778-18.895-44.942-2.117-62.908c16.748-17.966,44.969-18.908,62.909-2.117l325.341,304.09
			c20.515,19.153,32.044,45.012,32.511,72.784c0.432,27.718-10.228,53.853-30.05,73.586l-326.79,325.686
			C388.219,905.842,376.83,910.175,365.471,910.175L365.471,910.175z M365.471,910.175"/>
	</g>
</g>
</svg>
