<?xml version="1.0" encoding="utf-8"?>
<!-- Generator: Adobe Illustrator 18.0.0, SVG Export Plug-In . SVG Version: 6.00 Build 0)  -->
<!DOCTYPE svg PUBLIC "-//W3C//DTD SVG 1.1//EN" "http://www.w3.org/Graphics/SVG/1.1/DTD/svg11.dtd">
<svg version="1.1" id="图层_1" xmlns="http://www.w3.org/2000/svg" xmlns:xlink="http://www.w3.org/1999/xlink" x="0px" y="0px"
	 viewBox="0 0 1024 1024" style="enable-background:new 0 0 1024 1024;" xml:space="preserve">
<g>
	<g>
		<path d="M167.74,760.606c-14.596,0-26.471-11.875-26.471-26.471c0-14.6,11.875-26.477,26.471-26.477h633.534
			c14.596,0,26.474,11.877,26.474,26.477c0,14.596-11.878,26.471-26.474,26.471H167.74z M483.331,542.583
			c-0.991,0-1.974-0.381-2.722-1.13L303.498,364.297L186.481,481.362c-4.993,4.997-11.64,7.744-18.716,7.744
			c-7.08,0-13.723-2.747-18.72-7.744c-10.319-10.326-10.319-27.116,0-37.434l151.73-151.774c0.727-0.723,1.703-1.126,2.722-1.126
			s1.999,0.403,2.718,1.126l179.669,179.62l243.777-208.937h-64.146c-14.6,0-26.474-11.874-26.474-26.47
			c0-14.6,11.875-26.478,26.474-26.478h134.852l0.856-0.014l0.997,0.018h21.683c2.128,0,3.845,1.724,3.845,3.848v158.384
			c0,14.596-11.878,26.471-26.474,26.471c-14.596,0-26.47-11.875-26.47-26.471v-78.273L485.833,541.651
			C485.11,542.275,484.223,542.583,483.331,542.583L483.331,542.583z M483.331,542.583"/>
	</g>
</g>
</svg>
