<?xml version="1.0" encoding="utf-8"?>
<!-- Generator: Adobe Illustrator 18.0.0, SVG Export Plug-In . SVG Version: 6.00 Build 0)  -->
<!DOCTYPE svg PUBLIC "-//W3C//DTD SVG 1.1//EN" "http://www.w3.org/Graphics/SVG/1.1/DTD/svg11.dtd">
<svg version="1.1" id="图层_1" xmlns="http://www.w3.org/2000/svg" xmlns:xlink="http://www.w3.org/1999/xlink" x="0px" y="0px"
	 viewBox="0 0 1024 1024" style="enable-background:new 0 0 1024 1024;" xml:space="preserve">
<g>
	<path d="M739.068,841.272c-7.859,0-14.105-1.91-17.586-5.375l-0.726-0.719l0.004-78.902H582.865L475.502,610.647l38.121-49.699
		l99.559,137.008h107.574l0.004-75.665l0.726-0.722c5.621-5.598,17.262-8.102,26.301-8.102c5.086,0,14.352,0.758,19.563,5.805
		l118.027,89.73l0.117,0.118c4.485,4.453,6.953,10.382,6.953,16.691c0,6.312-2.468,12.242-6.953,16.699l-0.117,0.117
		l-118.023,89.715C762.025,837.522,750.174,841.272,739.068,841.272L739.068,841.272z M166.783,758.823
		c-16.133,0-30.281-15.274-30.281-32.684c0-16.066,13.02-28.183,30.281-28.183h110.035l306.039-419.598h137.899v-78.113l0.726-0.723
		c4.168-4.145,11.11-5.016,16.204-5.016c11.293,0,23.996,4.149,29.668,9.668l118.023,89.723l0.117,0.113
		c4.485,4.461,6.953,10.391,6.953,16.699c0,6.309-2.468,12.239-6.953,16.7l-0.117,0.113L767.35,417.248
		c-3.555,3.438-9.856,5.329-17.766,5.329c-11.281,0-22.836-3.661-28.102-8.899l-0.726-0.719v-73.742H613.178L307.143,758.823
		H166.783z M276.818,339.217H166.783c-17.261,0-30.281-12.113-30.281-28.183c0-17.407,14.148-32.68,30.281-32.68h140.305
		l0.738,0.945c7.016,8.969,100.844,139.203,104.836,144.742l1.067,1.485l-38.11,49.68L276.818,339.217z M276.818,339.217"/>
</g>
</svg>
