<?xml version="1.0" encoding="utf-8"?>
<!-- Generator: Adobe Illustrator 18.0.0, SVG Export Plug-In . SVG Version: 6.00 Build 0)  -->
<!DOCTYPE svg PUBLIC "-//W3C//DTD SVG 1.1//EN" "http://www.w3.org/Graphics/SVG/1.1/DTD/svg11.dtd">
<svg version="1.1" id="图层_1" xmlns="http://www.w3.org/2000/svg" xmlns:xlink="http://www.w3.org/1999/xlink" x="0px" y="0px"
	 viewBox="0 0 1024 1024" style="enable-background:new 0 0 1024 1024;" xml:space="preserve">
<style type="text/css">
	.st0{fill-rule:evenodd;clip-rule:evenodd;fill:#000666;}
</style>
<g>
	<path class="st0" d="M817.946,816.018c-8.084,8.085-19.049,12.628-30.483,12.628c-11.433,0-22.399-4.542-30.482-12.628
		l-71.124-71.124l60.966-60.965l71.124,71.124C834.774,771.89,834.774,799.181,817.946,816.018L817.946,816.018z M208.333,694.087
		c-134.676-134.676-134.676-353.02,0-487.681c134.676-134.676,353.005-134.676,487.681,0c134.675,134.676,134.675,353.02,0,487.681
		C561.353,828.763,343.01,828.763,208.333,694.087L208.333,694.087z M655.38,247.054c-112.218-112.217-294.18-112.217-406.399,0
		c-112.232,112.232-112.232,294.18,0,406.399c112.232,112.218,294.18,112.232,406.399,0S767.599,359.273,655.38,247.054
		L655.38,247.054z"/>
</g>
</svg>
