<?xml version="1.0" encoding="utf-8"?>
<!-- Generator: Adobe Illustrator 18.0.0, SVG Export Plug-In . SVG Version: 6.00 Build 0)  -->
<!DOCTYPE svg PUBLIC "-//W3C//DTD SVG 1.1//EN" "http://www.w3.org/Graphics/SVG/1.1/DTD/svg11.dtd">
<svg version="1.1" id="图层_1" xmlns="http://www.w3.org/2000/svg" xmlns:xlink="http://www.w3.org/1999/xlink" x="0px" y="0px"
	 viewBox="0 0 1024 1024" style="enable-background:new 0 0 1024 1024;" xml:space="preserve">
<style type="text/css">
	.st0{fill:#FFFFFF;}
	.st1{fill:none;stroke:#FFFFFF;stroke-width:30;stroke-miterlimit:10;}
</style>
<g>
	<path class="st0" d="M866.708,763.844H152.294c-11.046,0-20-8.954-20-20v-2.153c0-11.046,8.954-20,20-20h714.414
		c11.046,0,20,8.954,20,20v2.153C886.708,754.89,877.754,763.844,866.708,763.844z"/>
	<path class="st1" d="M338.725,674.88h-79.852c-12.288,0-22.25-9.962-22.25-22.25V419.973c0-12.288,9.962-22.25,22.25-22.25h79.852
		c12.288,0,22.25,9.962,22.25,22.25V652.63C360.975,664.918,351.013,674.88,338.725,674.88z"/>
	<path class="st1" d="M551.598,674.88h-79.852c-12.288,0-22.25-9.962-22.25-22.25V310.375c0-12.288,9.962-22.25,22.25-22.25h79.852
		c12.288,0,22.25,9.962,22.25,22.25V652.63C573.848,664.918,563.886,674.88,551.598,674.88z"/>
	<path class="st1" d="M763.417,674.88h-79.852c-12.288,0-22.25-9.962-22.25-22.25V514.818c0-12.288,9.962-22.25,22.25-22.25h79.852
		c12.288,0,22.25,9.962,22.25,22.25V652.63C785.667,664.918,775.706,674.88,763.417,674.88z"/>
	<path class="st0" d="M315.51,249.978l166.22-134.491l218.825,251.729l-30.322,25.304c-4.631,3.861-6.697,9.995-5.36,15.861
		c1.334,5.861,5.862,10.48,11.695,11.966l106.391,26.827c1.288,0.334,2.609,0.486,3.915,0.486c3.708,0,7.352-1.276,10.271-3.705
		c3.952-3.285,6.075-8.249,5.71-13.37l-7.353-109.487c-0.408-6.002-4.157-11.271-9.686-13.642
		c-5.504-2.367-11.926-1.424-16.557,2.433l-35.912,29.952L500.459,71.927c-7.565-8.69-20.628-9.813-29.56-2.614L288.62,216.774
		c-9.159,7.414-10.6,20.871-3.157,30.03C292.86,255.964,306.317,257.392,315.51,249.978L315.51,249.978z M315.51,249.978"/>
</g>
</svg>
