<?xml version="1.0" encoding="utf-8"?>
<!-- Generator: Adobe Illustrator 18.0.0, SVG Export Plug-In . SVG Version: 6.00 Build 0)  -->
<!DOCTYPE svg PUBLIC "-//W3C//DTD SVG 1.1//EN" "http://www.w3.org/Graphics/SVG/1.1/DTD/svg11.dtd">
<svg version="1.1" id="图层_1" xmlns="http://www.w3.org/2000/svg" xmlns:xlink="http://www.w3.org/1999/xlink" x="0px" y="0px"
	 viewBox="0 0 1024 1024" style="enable-background:new 0 0 1024 1024;" xml:space="preserve">
<g>
	<g>
		<path d="M790.003,269.178L366.981,693.371L179.738,502.483c-22.502-22.856-59.163-23.208-82.074-1.115
			c-23.031,22.149-23.504,58.633-1.177,81.312l228.488,233.015c0.118,0.233,0.353,0.233,0.472,0.353
			c0.118,0.115,0.176,0.467,0.295,0.467c3.698,3.76,8.34,5.995,12.69,8.52c2.173,1.177,3.937,2.997,6.167,3.879
			c7.053,2.878,14.453,4.227,21.916,4.227c7.343,0,14.687-1.349,21.677-4.112c2.354-0.939,4.055-2.759,6.172-3.875
			c4.408-2.412,8.873-4.585,12.57-8.287c0.12,0,0.177-0.353,0.353-0.353c0.12-0.234,0.296-0.353,0.472-0.467L872.55,350.137
			c22.446-22.679,22.269-59.044-0.528-81.369C849.343,246.442,812.506,246.561,790.003,269.178L790.003,269.178z M790.003,269.178"
			/>
	</g>
</g>
</svg>
