<?xml version="1.0" encoding="utf-8"?>
<!-- Generator: Adobe Illustrator 18.0.0, SVG Export Plug-In . SVG Version: 6.00 Build 0)  -->
<!DOCTYPE svg PUBLIC "-//W3C//DTD SVG 1.1//EN" "http://www.w3.org/Graphics/SVG/1.1/DTD/svg11.dtd">
<svg version="1.1" id="图层_1" xmlns="http://www.w3.org/2000/svg" xmlns:xlink="http://www.w3.org/1999/xlink" x="0px" y="0px"
	 viewBox="0 0 1024 1024" style="enable-background:new 0 0 1024 1024;" xml:space="preserve">
<style type="text/css">
	.st0{fill:#FFFFFF;}
	.st1{clip-path:url(#SVGID_2_);fill:#FB4949;}
	.st2{fill:#FB4949;}
</style>
<circle class="st0" cx="514.356" cy="505.696" r="406.537"/>
<g>
	<g>
		<defs>
			<rect id="SVGID_1_" x="77.054" y="78.283" width="866.781" height="867.836"/>
		</defs>
		<clipPath id="SVGID_2_">
			<use xlink:href="#SVGID_1_"  style="overflow:visible;"/>
		</clipPath>
		<path class="st1" d="M510.365,945.064c-239.003,0-433.443-194.449-433.443-433.452S271.362,78.16,510.365,78.16
			c239,0,433.461,194.44,433.461,433.452S749.348,945.064,510.365,945.064L510.365,945.064z M510.365,121.479
			c-215.123,0-390.133,175.014-390.133,390.133s175.023,390.133,390.133,390.133c215.111,0,390.095-175.014,390.095-390.133
			S725.493,121.479,510.365,121.479L510.365,121.479z M510.365,121.479"/>
	</g>
	<path class="st2" d="M663.357,686.274c-5.755,0.013-11.274-2.274-15.335-6.352L510.219,542.124L372.692,679.887
		c-5.37,5.915-13.554,8.396-21.301,6.451c-7.747-1.939-13.795-7.987-15.735-15.734c-1.944-7.747,0.537-15.932,6.452-21.301
		l137.738-137.799L342.072,373.955c-5.476-5.473-7.613-13.455-5.609-20.932c2.004-7.477,7.845-13.318,15.322-15.322
		c7.477-2.004,15.459,0.133,20.932,5.609L510.49,481.083L648.022,343.31c5.365-5.915,13.55-8.394,21.297-6.455
		c7.747,1.945,13.795,7.992,15.739,15.738c1.94,7.747-0.541,15.932-6.455,21.297L540.877,511.702l137.79,137.558
		c6.202,6.194,8.06,15.512,4.717,23.615c-3.348,8.099-11.245,13.386-20.009,13.399H663.357z M663.357,686.274"/>
</g>
</svg>
