<?xml version="1.0" encoding="utf-8"?>
<!-- Generator: Adobe Illustrator 18.0.0, SVG Export Plug-In . SVG Version: 6.00 Build 0)  -->
<!DOCTYPE svg PUBLIC "-//W3C//DTD SVG 1.1//EN" "http://www.w3.org/Graphics/SVG/1.1/DTD/svg11.dtd">
<svg version="1.1" id="图层_1" xmlns="http://www.w3.org/2000/svg" xmlns:xlink="http://www.w3.org/1999/xlink" x="0px" y="0px"
	 viewBox="0 0 1024 1024" style="enable-background:new 0 0 1024 1024;" xml:space="preserve">
<g>
	<g>
		<path d="M415.981,926.399c-11.837,0-23.673-4.52-32.686-13.565c-17.999-18.053-17.935-47.272,0.118-65.268l338.833-337.693
			c3.366-3.363,4.027-6.982,3.995-9.434c-0.027-2.493-0.841-6.171-4.415-9.525L384.468,175.609
			c-18.628-17.396-19.591-46.598-2.195-65.226c17.365-18.628,46.626-19.605,65.227-2.195l337.331,315.297
			c21.271,19.859,33.225,46.671,33.709,75.467c0.448,28.74-10.605,55.838-31.157,76.298L448.549,912.939
			C439.568,921.906,427.759,926.399,415.981,926.399L415.981,926.399z M415.981,926.399"/>
	</g>
</g>
</svg>
