<?xml version="1.0" encoding="utf-8"?>
<!-- Generator: Adobe Illustrator 18.0.0, SVG Export Plug-In . SVG Version: 6.00 Build 0)  -->
<!DOCTYPE svg PUBLIC "-//W3C//DTD SVG 1.1//EN" "http://www.w3.org/Graphics/SVG/1.1/DTD/svg11.dtd">
<svg version="1.1" id="图层_1" xmlns="http://www.w3.org/2000/svg" xmlns:xlink="http://www.w3.org/1999/xlink" x="0px" y="0px"
	 viewBox="0 0 1024 1024" style="enable-background:new 0 0 1024 1024;" xml:space="preserve">
<style type="text/css">
	.st0{fill:#323333;}
</style>
<g>
	<path class="st0" d="M303.897,672.029V348.768H196.14v323.261H303.897 M357.773,725.906H142.264V294.892h215.509V725.906z
		 M357.773,725.906"/>
	<path class="st0" d="M681.035,809.846V210.951L357.773,332.227v356.289L681.035,809.846 M734.911,887.485l-431.013-161.58V294.892
		l431.013-161.633V887.485z M734.911,402.591v-53.822c89.276,0,161.58,72.304,161.58,161.629
		c0,89.329-72.304,161.632-161.58,161.632v-53.822c59.426,0,107.81-48.381,107.81-107.81
		C842.72,450.972,794.336,402.591,734.911,402.591"/>
</g>
</svg>
