<?xml version="1.0" encoding="utf-8"?>
<!-- Generator: Adobe Illustrator 18.0.0, SVG Export Plug-In . SVG Version: 6.00 Build 0)  -->
<!DOCTYPE svg PUBLIC "-//W3C//DTD SVG 1.1//EN" "http://www.w3.org/Graphics/SVG/1.1/DTD/svg11.dtd">
<svg version="1.1" id="图层_1" xmlns="http://www.w3.org/2000/svg" xmlns:xlink="http://www.w3.org/1999/xlink" x="0px" y="0px"
	 viewBox="0 0 1024 1024" style="enable-background:new 0 0 1024 1024;" xml:space="preserve">
<style type="text/css">
	.st0{clip-path:url(#SVGID_2_);}
</style>
<g>
	<path d="M206.829,534.114v267.488c0,29.495,23.939,53.489,53.329,53.489h463.798c29.471,0,53.325-23.825,53.325-53.329V542.892
		h-35.648v258.869c0,9.809-7.887,17.683-17.678,17.683H260.159c-9.684,0-17.682-8.018-17.682-17.842V534.114H206.829z
		 M206.829,534.114"/>
	<g>
		<defs>
			<rect id="SVGID_1_" x="135.654" y="106.011" width="713.318" height="750.062"/>
		</defs>
		<clipPath id="SVGID_2_">
			<use xlink:href="#SVGID_1_"  style="overflow:visible;"/>
		</clipPath>
		<rect x="492.017" y="329.001" class="st0" width="35.652" height="507.997"/>
		<path class="st0" d="M153.357,346.827h606.119c29.471,0,53.381,23.95,53.381,53.516v124.728l17.822-17.825H224.56
			c-29.472,0-53.381-23.95-53.381-53.513V329.001L153.357,346.827z M153.357,311.179h-17.826v142.553
			c0,49.235,39.854,89.16,89.029,89.16h623.945V400.343c0-49.239-39.854-89.164-89.029-89.164H153.357z M153.357,311.179"/>
	</g>
	<path d="M456.369,293.354h106.946l-17.826-17.826v53.473l17.826-17.822H456.369l17.826,17.822v-53.473L456.369,293.354z
		 M456.369,257.706h-17.826v89.121h142.597v-89.121H456.369z M456.369,257.706"/>
	<path d="M533.72,285.213c0.73-1.129,2.144-3.29,4.166-6.335c3.389-5.103,7.228-10.802,11.438-16.937
		c12.024-17.519,24.596-35.033,37.062-51.336c6.655-8.7,13.105-16.825,19.294-24.265c22.889-27.514,42.15-44.494,46.758-44.494
		c27.781,0,76.593,30.831,101.595,64.17c4.155,5.534,1.834,21.051-8.515,42.872c-4.222,8.895-0.431,19.524,8.464,23.741
		c8.891,4.222,19.523,0.431,23.741-8.464c15.605-32.892,19.632-59.808,4.829-79.539c-31.142-41.525-89.571-78.428-130.115-78.428
		c-20.429,0-43.043,19.935-74.165,57.345c-6.518,7.834-13.268,16.338-20.206,25.404c-12.878,16.841-25.791,34.834-38.135,52.823
		c-4.317,6.291-8.261,12.141-11.746,17.391c-2.105,3.166-3.596,5.446-4.397,6.686c-5.347,8.265-2.982,19.301,5.282,24.647
		C517.337,295.842,528.374,293.477,533.72,285.213L533.72,285.213z M533.72,285.213"/>
	<path d="M522.556,265.848c-0.801-1.24-2.296-3.52-4.397-6.686c-3.485-5.25-7.428-11.1-11.746-17.391
		c-12.344-17.989-25.257-35.982-38.135-52.823c-6.937-9.067-13.687-17.571-20.206-25.404c-31.122-37.41-53.737-57.345-74.165-57.345
		c-40.544,0-98.972,36.903-130.115,78.428c-14.676,19.568-10.828,46.212,4.446,78.729c5.095,10.845,11.43,22.16,18.738,33.758
		c6.71,10.653,13.875,20.975,21.039,30.603c4.318,5.801,7.707,10.119,9.713,12.57l27.589-22.574
		c-1.674-2.049-4.732-5.944-8.703-11.278c-6.647-8.931-13.296-18.516-19.476-28.323c-6.578-10.442-12.22-20.513-16.634-29.91
		c-10.091-21.49-12.292-36.724-8.193-42.186c25.002-33.339,73.814-64.17,101.595-64.17c4.608,0,23.87,16.98,46.758,44.494
		c6.188,7.441,12.639,15.565,19.293,24.265c12.466,16.303,25.038,33.817,37.062,51.336c4.21,6.135,8.05,11.834,11.439,16.937
		c2.022,3.046,3.437,5.206,4.166,6.335L522.556,265.848z M522.556,265.848"/>
</g>
</svg>
