<?xml version="1.0" encoding="utf-8"?>
<!-- Generator: Adobe Illustrator 18.0.0, SVG Export Plug-In . SVG Version: 6.00 Build 0)  -->
<!DOCTYPE svg PUBLIC "-//W3C//DTD SVG 1.1//EN" "http://www.w3.org/Graphics/SVG/1.1/DTD/svg11.dtd">
<svg version="1.1" id="图层_1" xmlns="http://www.w3.org/2000/svg" xmlns:xlink="http://www.w3.org/1999/xlink" x="0px" y="0px"
	 viewBox="0 0 1024 1024" style="enable-background:new 0 0 1024 1024;" xml:space="preserve">
<style type="text/css">
	.st0{fill:#00A6FF;}
</style>
<g>
	<g>
		<path class="st0" d="M186.205,752.623c0.024,4.677,3.812,8.461,8.489,8.479h637.964c2.261,0.013,4.432-0.879,6.029-2.475
			c1.597-1.597,2.488-3.768,2.475-6.029V333.892l-5.652,2.122c-9.527,3.574-20.186,7.56-31.741,11.846
			c-33.014,12.253-66.57,24.51-98.64,35.958c-4.912,1.76-9.761,3.481-14.548,5.175c-91.181,32.26-143.99,48.904-164.125,48.904
			c-19.896,0-76.974-16.892-176.115-49.544l-14.372-4.749c-34.815-11.538-71.289-23.899-107.223-36.259
			c-12.575-4.324-24.189-8.337-34.559-11.942l-7.964-2.769L186.205,752.623z M260.742,322.354
			c13.678,4.677,28.748,9.799,44.545,15.118v-99.919c0.013-9.025,3.609-17.676,10-24.05c6.391-6.374,15.053-9.948,24.078-9.935
			h231.268l-51.658-96.925L232.682,238.186L260.742,322.354z M220.232,308.427l-21.98-65.94
			c-4.124-12.827,1.939-26.72,14.147-32.419L511.557,72.606c12.533-5.692,27.338-0.722,33.895,11.383l63.777,119.579h87.278
			c9.028-0.024,17.698,3.547,24.089,9.924c6.394,6.374,9.989,15.032,9.986,24.061v100.939c57.679-20.93,104.869-38.8,104.869-38.8
			c21.959-8.234,39.788,4.145,39.788,27.629v425.302c0.011,11.282-4.465,22.108-12.447,30.086
			c-7.978,7.974-18.804,12.45-30.086,12.436H194.694c-23.484-0.007-42.518-19.038-42.533-42.522V327.31
			c0-23.484,17.905-36.291,40.193-28.572C192.382,298.745,202.9,302.426,220.232,308.427L220.232,308.427z M339.317,348.872
			c81.374,27.065,169.603,54.966,187.121,54.966c17.23,0,96.286-26.701,170.118-53.051V237.553l-357.19,0.042
			c0,0-0.049,72.011-0.049,111.267V348.872z M415.866,339.678c-6.25,0.276-12.147-2.901-15.354-8.272
			c-3.208-5.371-3.208-12.071,0-17.442c3.208-5.371,9.105-8.548,15.354-8.272H620.18c9.095,0.402,16.26,7.891,16.26,16.993
			c0,9.101-7.165,16.591-16.26,16.992H415.866z M591.044,630.885h-55.712v-43.151l56.632-0.888
			c10.128-1.334,18.873-4.003,18.873-13.346c0-9.789-8.289-17.798-18.417-17.798h-37.303l35.461-63.172
			c4.531-8.067,1.891-18.275-5.984-23.135c-7.825-4.448-17.953-1.773-22.097,6.226l-40.974,72.515
			c-1.386,2.222-1.842,4.891-2.305,7.56c0-2.669-0.919-4.892-2.306-7.56l-40.051-72.505c-2.073-3.788-5.585-6.584-9.743-7.756
			c-4.159-1.172-8.611-0.619-12.357,1.531c-7.826,4.448-10.127,14.68-5.984,23.135l34.987,63.172h-37.299
			c-10.131,0-18.421,8.005-18.421,17.798c0,9.789,8.29,14.231,18.421,14.231h55.709v43.155h-55.702
			c-10.128,0-22.098,0.885-22.098,10.678c0,9.789,11.97,20.463,22.098,20.463l55.713,1.337l-0.919,36.031
			c0,8.894,8.289,16.015,18.416,16.015c10.131,0,16.115-10.685,16.115-19.578v-32.478l57.089-1.334
			c10.128,0,18.42-8.005,18.42-17.798C610.38,634.892,601.172,630.885,591.044,630.885L591.044,630.885z M591.044,630.885"/>
	</g>
</g>
</svg>
