<?xml version="1.0" encoding="utf-8"?>
<!-- Generator: Adobe Illustrator 18.0.0, SVG Export Plug-In . SVG Version: 6.00 Build 0)  -->
<!DOCTYPE svg PUBLIC "-//W3C//DTD SVG 1.1//EN" "http://www.w3.org/Graphics/SVG/1.1/DTD/svg11.dtd">
<svg version="1.1" id="图层_1" xmlns="http://www.w3.org/2000/svg" xmlns:xlink="http://www.w3.org/1999/xlink" x="0px" y="0px"
	 viewBox="0 0 1024 1024" style="enable-background:new 0 0 1024 1024;" xml:space="preserve">
<style type="text/css">
	.st0{fill:#D81E06;}
</style>
<g>
	<path d="M323.526,577.221c-13.272,0-24.07-10.798-24.07-24.069v-24.918c0-13.272,10.798-24.07,24.07-24.07
		c13.271,0,24.069,10.798,24.069,24.07v24.918C347.594,566.423,336.796,577.221,323.526,577.221L323.526,577.221z M323.526,577.221"
		/>
	<path class="st0" d="M689.803,577.221c-13.272,0-24.07-10.798-24.07-24.069v-24.918c0-13.272,10.798-24.07,24.07-24.07
		c13.274,0,24.072,10.798,24.072,24.07v24.918C713.872,566.423,703.077,577.221,689.803,577.221L689.803,577.221z M689.803,577.221"
		/>
	<path class="st0" d="M505.84,577.221c-13.271,0-24.069-10.798-24.069-24.069v-24.918c0-13.272,10.798-24.07,24.069-24.07
		c6.428,0,12.472,2.504,17.02,7.05c4.546,4.548,7.05,10.591,7.05,17.02v24.918C529.909,566.423,519.11,577.221,505.84,577.221
		L505.84,577.221z M505.84,577.221"/>
	<path class="st0" d="M323.526,725.79c-13.272,0-24.07-10.799-24.07-24.07v-24.915c0-13.274,10.798-24.069,24.07-24.069
		c13.271,0,24.069,10.795,24.069,24.069v24.915C347.594,714.991,336.796,725.79,323.526,725.79L323.526,725.79z M323.526,725.79"/>
	<path d="M689.803,725.79c-13.272,0-24.07-10.799-24.07-24.07v-24.915c0-13.274,10.798-24.069,24.07-24.069
		c13.274,0,24.072,10.795,24.072,24.069v24.915C713.872,714.991,703.077,725.79,689.803,725.79L689.803,725.79z M689.803,725.79"/>
	<g>
		<path d="M505.84,725.79c-13.271,0-24.069-10.799-24.069-24.07v-24.915c0-13.274,10.798-24.069,24.069-24.069
			c6.428,0,12.472,2.5,17.02,7.049c4.546,4.546,7.05,10.588,7.05,17.02v24.915C529.909,714.991,519.11,725.79,505.84,725.79
			L505.84,725.79z M505.84,725.79"/>
		<path d="M629.487,253.945c-13.271,0-24.07-10.799-24.07-24.07v-9.985h-190.24v9.985c0,13.271-10.799,24.07-24.07,24.07
			s-24.07-10.799-24.07-24.073v-76.62c0-13.271,10.799-24.069,24.07-24.069s24.07,10.798,24.07,24.069v18.497h190.24v-18.497
			c0-13.271,10.799-24.069,24.07-24.069c13.271,0,24.069,10.798,24.069,24.069v76.624
			C653.556,243.146,642.758,253.945,629.487,253.945L629.487,253.945z M629.487,253.945"/>
		<path d="M290.187,861.68c-70.115,0-127.162-57.737-127.162-128.708V286.905c0-70.967,57.047-128.701,127.169-128.701
			c13.271,0,24.069,10.795,24.069,24.07c0,13.271-10.798,24.069-24.069,24.069c-43.577,0-79.03,36.137-79.03,80.563v100.959h598.267
			V286.961c0-44.421-35.454-80.562-79.03-80.562c-13.271,0-24.069-10.795-24.069-24.07c0-13.271,10.798-24.069,24.069-24.069
			c70.122,0,127.169,57.734,127.169,128.7v446.071c0,70.97-57.047,128.705-127.169,128.705L290.187,861.68z M211.164,732.973
			c0,44.424,35.453,80.569,79.03,80.569l440.21,0.056c43.576,0,79.026-36.14,79.026-80.565V436.003H211.164V732.973z
			 M211.164,732.973"/>
	</g>
</g>
</svg>
