<?xml version="1.0" encoding="utf-8"?>
<!-- Generator: Adobe Illustrator 18.0.0, SVG Export Plug-In . SVG Version: 6.00 Build 0)  -->
<!DOCTYPE svg PUBLIC "-//W3C//DTD SVG 1.1//EN" "http://www.w3.org/Graphics/SVG/1.1/DTD/svg11.dtd">
<svg version="1.1" id="图层_1" xmlns="http://www.w3.org/2000/svg" xmlns:xlink="http://www.w3.org/1999/xlink" x="0px" y="0px"
	 viewBox="0 0 1024 1024" style="enable-background:new 0 0 1024 1024;" xml:space="preserve">
<style type="text/css">
	.st0{fill-rule:evenodd;clip-rule:evenodd;fill:#1371F1;}
	.st1{fill-rule:evenodd;clip-rule:evenodd;fill:#57C6FD;}
</style>
<g>
	<path class="st0" d="M837.586,618.582c0,8.253-6.692,14.945-14.945,14.945c-8.253,0-14.945-6.692-14.945-14.945v-76.407
		c0.209-8.104,6.839-14.564,14.945-14.564c8.106,0,14.735,6.461,14.945,14.564V618.582L837.586,618.582z"/>
	<path class="st1" d="M404.534,338.752c0,3.964-1.575,7.765-4.377,10.568c-2.803,2.803-6.604,4.377-10.568,4.377h-62.274
		c-3.964,0-7.765-1.574-10.568-4.377c-2.803-2.802-4.377-6.604-4.377-10.568c0-0.283,0.069-0.542,0.089-0.827h-21.001
		c0.015,0.28,0.084,0.544,0.084,0.827c0,3.964-1.574,7.765-4.377,10.568c-2.802,2.803-6.604,4.377-10.568,4.377H214.89v14.118
		h564.561v417.55c0,7.786-2.595,14.945-6.92,20.753h0.294c19.223,0,34.871-15.648,34.871-34.871v-417.55H439.823
		c-3.964,0-7.765-1.574-10.568-4.377c-2.803-2.802-4.377-6.604-4.377-10.568c0-0.283,0.069-0.542,0.084-0.827h-20.509
		C404.463,338.21,404.534,338.474,404.534,338.752L404.534,338.752z M772.825,214.453H249.761
		c-12.813,0.011-24.589,7.041-30.681,18.312c5.084-2.756,10.776-4.196,16.559-4.19h523.059c19.223,0,34.871,15.643,34.871,34.871
		v59.54h14.127v-73.663C807.696,230.094,792.049,214.453,772.825,214.453L772.825,214.453z"/>
	<path class="st0" d="M351.47,134.748c-8.253,0-14.945,6.691-14.945,14.945v99.631c0,8.253,6.692,14.945,14.945,14.945
		c8.254,0,14.945-6.692,14.945-14.945v-99.631C366.414,141.439,359.724,134.748,351.47,134.748L351.47,134.748z M671.122,134.748
		c-8.253,0-14.945,6.691-14.945,14.945v99.631c0,8.253,6.692,14.945,14.945,14.945c8.254,0,14.945-6.692,14.945-14.945v-99.631
		C686.066,141.439,679.376,134.748,671.122,134.748L671.122,134.748z"/>
	<path class="st0" d="M373.647,515.837h-23.991c1.155-25.506,9.619-45.96,25.386-61.378c15.762-15.413,35.001-23.124,57.722-23.124
		c22.023,0,40.385,7.247,55.111,21.734c14.715,14.492,22.083,32.166,22.083,53.029c0,15.528-4.119,29.9-12.349,43.111
		c-8.229,13.212-20.683,28.868-37.376,46.947l-62.239,67.106h115.442v23.991H343.743l95.277-102.919
		c16.694-18.078,28.625-32.34,35.812-42.771c7.179-10.431,10.776-22.134,10.776-35.12c0-13.908-5.276-25.959-15.822-36.161
		c-10.551-10.197-23.354-15.299-38.422-15.299c-16.23,0-29.501,5.276-39.814,15.822C381.235,481.356,375.267,496.36,373.647,515.837
		L373.647,515.837z M590.271,437.597H639.3v249.656h-24.684V461.936h-39.289L590.271,437.597L590.271,437.597z"/>
	<path class="st0" d="M389.589,322.987h-62.27c-8.254,0-14.945,6.69-14.945,14.945c0,8.253,6.69,14.945,14.945,14.945h62.27
		c8.253,0,14.945-6.692,14.945-14.945C404.534,329.677,397.842,322.987,389.589,322.987L389.589,322.987z"/>
	<path class="st0" d="M837.586,249.324c0-35.708-29.053-64.76-64.76-64.76H249.761c-35.708,0-64.76,29.053-64.76,64.76V770.42
		c0,35.717,29.053,64.76,64.76,64.76h523.064c35.708,0,64.76-29.043,64.76-64.76V665.503c-0.209-8.104-6.839-14.564-14.945-14.564
		c-8.106,0-14.736,6.461-14.945,14.564V770.42c0,19.234-15.648,34.871-34.871,34.871H249.761c-19.223,0-34.871-15.637-34.871-34.871
		V352.876h61.706c8.254,0,14.945-6.692,14.945-14.945c0-8.254-6.69-14.945-14.945-14.945H214.89v-73.663
		c0-19.229,15.648-34.871,34.871-34.871h523.064c19.223,0,34.871,15.641,34.871,34.871v73.663H439.823
		c-8.254,0-14.945,6.69-14.945,14.945c0,8.253,6.69,14.945,14.945,14.945h367.873v139.339h0.185c-0.08,0.623-0.185,1.23-0.185,1.873
		c0,8.253,6.692,14.945,14.945,14.945c8.253,0,14.945-6.692,14.945-14.945c0-0.643-0.114-1.25-0.195-1.873h0.195V249.324
		L837.586,249.324z"/>
</g>
</svg>
