<?xml version="1.0" encoding="utf-8"?>
<!-- Generator: Adobe Illustrator 18.0.0, SVG Export Plug-In . SVG Version: 6.00 Build 0)  -->
<!DOCTYPE svg PUBLIC "-//W3C//DTD SVG 1.1//EN" "http://www.w3.org/Graphics/SVG/1.1/DTD/svg11.dtd">
<svg version="1.1" id="图层_1" xmlns="http://www.w3.org/2000/svg" xmlns:xlink="http://www.w3.org/1999/xlink" x="0px" y="0px"
	 viewBox="0 0 1024 1024" style="enable-background:new 0 0 1024 1024;" xml:space="preserve">
<style type="text/css">
	.st0{fill-rule:evenodd;clip-rule:evenodd;}
</style>
<g>
	<path class="st0" d="M201.99,287.086h604.065l-298.227,206.31L201.99,287.086L201.99,287.086z M618.026,527.84
		c-6.788-6.003-17.161-5.375-23.178,1.416c-6.011,6.796-5.376,17.168,1.417,23.18L807.69,739.491H201.881l211.425-187.055
		c6.794-6.012,7.429-16.383,1.418-23.18c-6.018-6.799-16.384-7.427-23.178-1.416L173.674,720.604V307.609l325.082,219.289
		c2.778,1.873,5.986,2.809,9.187,2.809c3.265,0,6.536-0.975,9.341-2.918l324.928-224.787v424.182L618.026,527.84L618.026,527.84z
		 M838.926,254.241H176.959c-19.919,0-36.13,16.206-36.13,36.129v445.834c0,9.516,3.72,18.157,9.757,24.617
		c0.315,0.43,0.571,0.889,0.936,1.302c1.316,1.487,2.875,2.598,4.524,3.488c5.908,4.216,13.119,6.725,20.913,6.725h661.967
		c19.918,0,36.131-16.206,36.131-36.133V290.37C875.057,270.445,858.844,254.241,838.926,254.241L838.926,254.241z"/>
</g>
</svg>
