<?xml version="1.0" encoding="utf-8"?>
<!-- Generator: Adobe Illustrator 18.0.0, SVG Export Plug-In . SVG Version: 6.00 Build 0)  -->
<!DOCTYPE svg PUBLIC "-//W3C//DTD SVG 1.1//EN" "http://www.w3.org/Graphics/SVG/1.1/DTD/svg11.dtd">
<svg version="1.1" id="图层_1" xmlns="http://www.w3.org/2000/svg" xmlns:xlink="http://www.w3.org/1999/xlink" x="0px" y="0px"
	 viewBox="0 0 80 80" style="enable-background:new 0 0 80 80;" xml:space="preserve">
<style type="text/css">
	.st0{fill:#515151;}
</style>
<g>
	<g>
		<path class="st0" d="M151.523-89.601L92.09-96.027l-1.606-1.606l-25.699-54.613c-4.82-9.637-14.457-16.062-24.097-16.062
			c-9.637,0-19.274,6.425-24.094,16.062L-9.105-99.238l-1.606,1.605l-59.434,8.032c-11.242,1.605-19.273,8.031-22.488,17.668
			c-3.211,9.636,0,20.882,8.031,27.308L-41.23-4.469c0,0,0,1.606,1.605,1.606l-12.848,61.039c-1.609,8.031,0,17.668,4.817,22.488
			c8.031,9.637,20.883,11.242,33.73,4.817l51.403-28.91h1.605l53.008,28.91c4.82,3.215,9.637,3.215,14.457,3.215
			c8.031,0,14.457-3.215,19.273-9.641c4.821-6.422,6.426-14.453,4.821-22.484l-8.032-56.223v-1.606l43.371-41.761
			c8.032-8.032,11.243-17.668,8.032-27.309C170.797-79.965,162.766-87.996,151.523-89.601L151.523-89.601z M93.695-31.777
			C84.059-22.14,79.238-6.074,80.848,6.774l4.816,27.308L59.965,21.231c-8.031-4.821-16.063-4.821-20.883-4.821
			c-4.816,0-12.848,1.61-20.879,4.821L-4.285,35.688L0.531,8.379C3.746-4.469-2.68-20.531-12.316-30.172l-20.883-19.273
			l28.914-3.211c12.847-1.609,27.305-11.246,33.73-24.098l12.852-25.699l12.848,25.699c6.425,12.852,19.277,22.489,33.734,24.098
			l28.91,3.211L93.695-31.777z M93.695-31.777"/>
		<path class="st0" d="M400.496,316.785L318.574,85.481c17.668-40.157,27.309-81.918,27.309-125.289
			C345.883-208.465,209.348-345,40.688-345c-168.657,0-305.192,136.535-305.192,305.192c0,44.976,9.641,88.347,28.914,130.109
			l-86.738,220.059c-3.215,8.031-1.606,16.062,3.211,22.488c4.82,4.82,12.851,8.031,20.883,4.82l125.289-28.914l70.675,107.621
			c3.215,6.426,11.247,9.637,17.668,9.637h1.61c8.031-1.606,14.453-6.426,17.668-12.852l59.433-150.988
			c14.453,1.606,28.911,3.211,44.973,3.211c14.457,0,30.52-1.605,44.977-3.211l51.402,147.777
			c3.211,8.032,9.637,12.852,17.668,14.457h3.211c6.426,0,12.851-3.214,17.672-8.031l75.492-104.41l123.684,35.34
			c8.031,1.605,16.062,0,20.882-6.426C400.496,332.848,402.102,324.817,400.496,316.785L400.496,316.785z M-87.812,358.547
			l-57.825-85.133c-3.215-6.422-11.246-9.636-17.672-9.636h-4.816l-101.195,24.093l59.429-150.988
			c1.61,1.606,3.215,3.211,3.215,4.82c0,1.606,1.606,1.606,1.606,3.211c1.605,1.606,1.605,3.211,3.211,3.211
			c0,1.61,1.609,1.61,1.609,3.215c1.605,1.606,1.605,3.211,3.211,3.211l8.031,8.031c1.606,1.606,1.606,3.215,3.211,3.215
			l1.609,1.606l11.243,11.242c1.605,1.605,3.211,3.215,4.82,3.215l8.031,8.031c1.606,1.605,3.211,3.211,6.426,4.816l1.606,1.61
			c1.605,1.605,3.21,3.211,4.816,3.211c0,0,1.609,0,1.609,1.605c1.606,1.606,3.211,3.215,6.422,4.82
			c1.61,1.606,4.82,3.211,6.426,4.817c1.605,1.609,3.215,3.215,6.426,3.215h1.605c4.82,3.211,9.637,6.425,14.457,8.031
			c1.606,1.605,4.821,3.211,6.426,3.211c8.031,3.215,14.457,8.031,22.488,11.246l24.094,9.637c3.211,1.605,6.426,1.605,8.031,3.211
			L-87.812,358.547z M95.301,217.196c-35.336,8.031-72.281,8.031-107.617,0c-78.707-16.063-144.567-65.856-179.903-138.141
			c-19.277-36.941-28.914-77.098-28.914-118.863c0-144.563,117.258-263.43,263.43-263.43c144.562,0,263.43,117.258,263.43,263.43
			c0,40.156-9.641,78.707-27.309,114.047c-1.606,1.605-1.606,4.816-3.211,6.425C236.656,151.34,170.797,201.133,95.301,217.196
			L95.301,217.196z M246.294,265.383c-8.031-1.605-17.668,1.609-22.488,8.031l-61.039,83.528L125.82,252.535h3.215
			c1.606,0,4.817-1.605,6.426-1.605h1.605l14.457-4.82h1.606c1.605,0,3.211-1.606,6.426-3.215h1.605
			c3.211-1.606,4.82-1.606,8.031-3.211c1.606-1.606,4.821-1.606,6.426-3.211c0,0,1.606,0,1.606-1.609
			c1.605-1.606,3.211-1.606,4.82-3.211c0,0,1.605,0,1.605-1.606c1.606-1.605,4.817-3.215,6.426-3.215
			c1.606-1.605,4.817-3.211,6.422-3.211c0,0,1.609,0,1.609-1.605c1.606-1.606,3.211-1.606,4.817-3.215c0,0,1.609,0,1.609-1.605
			c1.606-1.606,4.817-3.211,6.422-4.817c1.609-1.609,3.215-3.215,6.426-4.82l1.605-1.606c1.61-1.605,3.215-3.214,4.821-3.214
			c0,0,1.605,0,1.605-1.606c1.606-1.605,4.82-3.211,6.426-4.816h1.605l12.852-12.852c1.605-1.605,3.211-3.215,6.426-4.82
			l12.847-12.848c1.61-1.609,3.215-4.82,4.821-6.426l4.82-4.82c0,0,0-1.605,1.605-1.605c1.606-1.606,3.211-4.821,4.817-6.426
			c1.609-1.606,3.215-4.817,4.82-6.426c1.606-1.605,1.606-3.211,3.211-3.211l56.223,159.02L246.294,265.383z M246.294,265.383"/>
	</g>
</g>
</svg>
