<?xml version="1.0" encoding="utf-8"?>
<!-- Generator: Adobe Illustrator 18.0.0, SVG Export Plug-In . SVG Version: 6.00 Build 0)  -->
<!DOCTYPE svg PUBLIC "-//W3C//DTD SVG 1.1//EN" "http://www.w3.org/Graphics/SVG/1.1/DTD/svg11.dtd">
<svg version="1.1" id="图层_1" xmlns="http://www.w3.org/2000/svg" xmlns:xlink="http://www.w3.org/1999/xlink" x="0px" y="0px"
	 viewBox="0 0 1024 1024" style="enable-background:new 0 0 1024 1024;" xml:space="preserve">
<g>
	<g>
		<path d="M772.309,231.196L351.848,652.822L165.739,463.089c-22.366-22.717-58.804-23.068-81.578-1.108
			c-22.892,22.015-23.361,58.278-1.17,80.82l227.105,231.604c0.118,0.232,0.35,0.232,0.469,0.35
			c0.118,0.114,0.175,0.464,0.293,0.464c3.675,3.737,8.289,5.958,12.613,8.469c2.16,1.17,3.913,2.979,6.13,3.856
			c7.01,2.86,14.365,4.202,21.784,4.202c7.298,0,14.598-1.341,21.546-4.088c2.34-0.934,4.031-2.743,6.134-3.851
			c4.381-2.397,8.819-4.557,12.494-8.237c0.119,0,0.176-0.35,0.35-0.35c0.119-0.233,0.295-0.35,0.469-0.464l461.977-463.09
			c22.31-22.542,22.134-58.687-0.525-80.877C831.29,208.598,794.676,208.717,772.309,231.196L772.309,231.196z M772.309,231.196"/>
	</g>
</g>
</svg>
