<?xml version="1.0" encoding="utf-8"?>
<!-- Generator: Adobe Illustrator 18.0.0, SVG Export Plug-In . SVG Version: 6.00 Build 0)  -->
<!DOCTYPE svg PUBLIC "-//W3C//DTD SVG 1.1//EN" "http://www.w3.org/Graphics/SVG/1.1/DTD/svg11.dtd">
<svg version="1.1" id="图层_1" xmlns="http://www.w3.org/2000/svg" xmlns:xlink="http://www.w3.org/1999/xlink" x="0px" y="0px"
	 viewBox="0 0 1024 1024" style="enable-background:new 0 0 1024 1024;" xml:space="preserve">
<g>
	<path d="M785.214,822.102H236.406c-50.434,0-91.467-41.033-91.467-91.467V291.587c0-50.432,41.033-91.467,91.467-91.467h548.808
		c50.438,0,91.471,41.034,91.471,91.467v84.227L509.935,568.831L299.757,435.066c-8.526-5.414-11.05-16.74-5.616-25.264
		c5.436-8.504,16.719-11.013,25.266-5.616l192.282,122.347l328.409-172.818v-62.128c0-30.255-24.625-54.88-54.884-54.88H236.406
		c-30.256,0-54.88,24.624-54.88,54.88v439.048c0,30.255,24.623,54.88,54.88,54.88h548.808c30.26,0,54.884-24.625,54.884-54.88
		V511.112c0-10.099,8.177-18.293,18.294-18.293c10.115,0,18.293,8.194,18.293,18.293v219.524
		C876.685,781.069,835.652,822.102,785.214,822.102L785.214,822.102z M785.214,822.102"/>
</g>
</svg>
