<?xml version="1.0" encoding="utf-8"?>
<!-- Generator: Adobe Illustrator 18.0.0, SVG Export Plug-In . SVG Version: 6.00 Build 0)  -->
<!DOCTYPE svg PUBLIC "-//W3C//DTD SVG 1.1//EN" "http://www.w3.org/Graphics/SVG/1.1/DTD/svg11.dtd">
<svg version="1.1" id="图层_1" xmlns="http://www.w3.org/2000/svg" xmlns:xlink="http://www.w3.org/1999/xlink" x="0px" y="0px"
	 viewBox="0 0 1024 1024" style="enable-background:new 0 0 1024 1024;" xml:space="preserve">
<g>
	<g>
		<path d="M425.122,940.325c-12.179,0-24.357-4.65-33.63-13.957c-18.519-18.575-18.453-48.638,0.122-67.153l348.623-347.449
			c3.463-3.46,4.144-7.184,4.11-9.707c-0.027-2.565-0.865-6.35-4.543-9.8L392.698,167.844c-19.166-17.899-20.157-47.945-2.258-67.11
			c17.867-19.166,47.973-20.172,67.112-2.258l347.077,324.406c21.885,20.433,34.185,48.02,34.683,77.647
			c0.461,29.57-10.912,57.451-32.057,78.503L458.631,926.476C449.39,935.703,437.24,940.325,425.122,940.325L425.122,940.325z
			 M425.122,940.325"/>
	</g>
</g>
</svg>
