<?xml version="1.0" encoding="utf-8"?>
<!-- Generator: Adobe Illustrator 18.0.0, SVG Export Plug-In . SVG Version: 6.00 Build 0)  -->
<!DOCTYPE svg PUBLIC "-//W3C//DTD SVG 1.1//EN" "http://www.w3.org/Graphics/SVG/1.1/DTD/svg11.dtd">
<svg version="1.1" id="图层_1" xmlns="http://www.w3.org/2000/svg" xmlns:xlink="http://www.w3.org/1999/xlink" x="0px" y="0px"
	 viewBox="0 0 1024 1024" style="enable-background:new 0 0 1024 1024;" xml:space="preserve">
<style type="text/css">
	.st0{fill:#FFFFFF;}
	.st1{clip-path:url(#SVGID_2_);fill:#FB4949;}
	.st2{fill:#FB4949;}
</style>
<g>
	<circle class="st0" cx="513.159" cy="507.709" r="408.31"/>
	<g>
		<defs>
			<rect id="SVGID_1_" x="77.335" y="76.287" width="868.214" height="869.271"/>
		</defs>
		<clipPath id="SVGID_2_">
			<use xlink:href="#SVGID_1_"  style="overflow:visible;"/>
		</clipPath>
		<path class="st1" d="M511.363,944.502c-239.398,0-434.16-194.771-434.16-434.169S271.964,76.164,511.363,76.164
			c239.395,0,434.178,194.762,434.178,434.169S750.74,944.502,511.363,944.502L511.363,944.502z M511.363,119.555
			c-215.479,0-390.778,175.304-390.778,390.778s175.312,390.778,390.778,390.778c215.467,0,390.739-175.304,390.739-390.778
			S726.846,119.555,511.363,119.555L511.363,119.555z M511.363,119.555"/>
	</g>
	<path class="st2" d="M664.608,685.284c-5.765,0.013-11.293-2.278-15.361-6.362L511.216,540.895L373.462,678.887
		c-5.378,5.924-13.577,8.409-21.337,6.461c-7.76-1.943-13.818-8-15.761-15.76c-1.947-7.76,0.538-15.958,6.463-21.337
		l137.966-138.026L342.791,372.448c-5.485-5.482-7.626-13.478-5.618-20.967c2.007-7.49,7.858-13.34,15.347-15.347
		c7.489-2.007,15.485,0.133,20.967,5.618l138.001,138.001l137.759-138.001c5.374-5.924,13.572-8.408,21.332-6.466
		c7.76,1.948,13.818,8.005,15.765,15.764c1.944,7.76-0.541,15.958-6.466,21.332l-137.953,138.04l138.018,137.785
		c6.213,6.204,8.074,15.538,4.725,23.654c-3.353,8.112-11.263,13.408-20.042,13.421H664.608z M664.608,685.284"/>
</g>
</svg>
