<?xml version="1.0" encoding="utf-8"?>
<!-- Generator: Adobe Illustrator 18.0.0, SVG Export Plug-In . SVG Version: 6.00 Build 0)  -->
<!DOCTYPE svg PUBLIC "-//W3C//DTD SVG 1.1//EN" "http://www.w3.org/Graphics/SVG/1.1/DTD/svg11.dtd">
<svg version="1.1" id="图层_1" xmlns="http://www.w3.org/2000/svg" xmlns:xlink="http://www.w3.org/1999/xlink" x="0px" y="0px"
	 viewBox="0 0 1024 1024" style="enable-background:new 0 0 1024 1024;" xml:space="preserve">
<g>
	<path d="M312.976,284.498l-171.318-0.167l-0.687,459.081h114.723l-0.039-57.296h-57.279V342.087h113.467l230.681-133.368v611.619
		L312.932,686.116v57.3l286.944,172.006V112.404L312.976,284.498z M689.728,284.239l-33.856,43.748
		c51.13,46.954,80.473,115.691,80.473,188.488c0,70.173-27.613,137.256-75.692,183.973l34.903,42.719
		c59.262-57.585,93.276-140.224,93.276-226.692C788.837,426.75,752.72,342.113,689.728,284.239L689.728,284.239z M778.337,196.909
		l-26.667,49.3c86.769,55.641,140.724,158.353,140.724,267.923c0,109-53.482,211.367-139.568,267.183l26.82,49.125
		c101.937-66.001,165.241-187.235,165.241-316.308C944.891,384.376,881.058,262.849,778.337,196.909L778.337,196.909z
		 M778.337,196.909"/>
</g>
</svg>
