<?xml version="1.0" encoding="utf-8"?>
<!-- Generator: Adobe Illustrator 18.0.0, SVG Export Plug-In . SVG Version: 6.00 Build 0)  -->
<!DOCTYPE svg PUBLIC "-//W3C//DTD SVG 1.1//EN" "http://www.w3.org/Graphics/SVG/1.1/DTD/svg11.dtd">
<svg version="1.1" id="图层_1" xmlns="http://www.w3.org/2000/svg" xmlns:xlink="http://www.w3.org/1999/xlink" x="0px" y="0px"
	 viewBox="0 0 1024 1024" style="enable-background:new 0 0 1024 1024;" xml:space="preserve">
<style type="text/css">
	.st0{clip-path:url(#SVGID_2_);fill:#040000;}
</style>
<g>
	<g>
		<defs>
			<rect id="SVGID_1_" x="210.176" y="189.926" width="625.806" height="645.394"/>
		</defs>
		<clipPath id="SVGID_2_">
			<use xlink:href="#SVGID_1_"  style="overflow:visible;"/>
		</clipPath>
		<path class="st0" d="M711.137,354.906H408.925c-10.062,0-18.213,8.152-18.213,18.213c0,10.066,8.15,18.215,18.213,18.215h302.211
			c10.059,0,18.213-8.149,18.213-18.215C729.349,363.058,721.196,354.906,711.137,354.906L711.137,354.906z M695.437,500.725
			c0-10.062-8.159-18.216-18.218-18.216H408.925c-10.062,0-18.213,8.153-18.213,18.216c0,10.066,8.15,18.215,18.213,18.215h268.293
			C687.278,518.94,695.437,510.79,695.437,500.725L695.437,500.725z M408.925,610.316c-10.062,0-18.213,8.15-18.213,18.216
			c0,10.062,8.15,18.218,18.213,18.218h178.827c10.062,0,18.216-8.156,18.216-18.218c0-10.066-8.153-18.216-18.216-18.216H408.925z
			 M595.604,798.102H257.771c-8.654,0-11.068-2.415-11.068-11.069v-549.77c0-8.654,2.414-11.068,11.068-11.068h513.64
			c8.654,0,11.072,2.414,11.072,11.068V525.18h0.102c0.399,9.66,8.352,17.41,18.218,17.41c9.86,0,17.709-7.75,18.213-17.41h0.102
			V208.078c0-10.062-8.152-18.213-18.219-18.213H228.389c-10.062,0-18.212,8.152-18.212,18.213v608.235
			c0,10.066,8.15,18.219,18.212,18.219H595.1 M408.421,798.102c-10.066,0-18.212,8.149-18.212,18.212
			c0,10.066,8.149,18.219,18.212,18.219h178.833c10.062,0,18.213-8.153,18.213-18.219c0-10.062-8.15-18.212-18.213-18.212H408.421z
			 M408.421,798.102"/>
		<path class="st0" d="M304.265,373.121c0,14.451,11.717,26.165,26.165,26.165c14.455,0,26.168-11.714,26.168-26.165
			c0-14.452-11.713-26.166-26.168-26.166C315.982,346.956,304.265,358.67,304.265,373.121L304.265,373.121z M307.789,501.933
			c0,14.454,11.714,26.168,26.169,26.168c14.445,0,26.159-11.717,26.159-26.168c0-14.452-11.714-26.165-26.159-26.165
			C319.503,475.768,307.789,487.482,307.789,501.933L307.789,501.933z M307.789,629.238c0,14.445,11.714,26.163,26.169,26.163
			c14.445,0,26.159-11.717,26.159-26.163c0-14.454-11.714-26.168-26.159-26.168C319.503,603.07,307.789,614.784,307.789,629.238
			L307.789,629.238z M613.115,688.307l57.765,46.094l143.909-132.637c0,0,9.657-8.857,18.111-1.916
			c2.512,2.018,5.434,7.956-1.105,17.109L681.549,792.968c0,0-11.475,15.798-25.163-0.197l-64.906-87.559
			c0,0-7.651-11.874,1.907-18.916C596.711,683.878,604.058,680.158,613.115,688.307L613.115,688.307z M613.115,688.307"/>
	</g>
</g>
</svg>
