<?xml version="1.0" encoding="utf-8"?>
<!-- Generator: Adobe Illustrator 18.0.0, SVG Export Plug-In . SVG Version: 6.00 Build 0)  -->
<!DOCTYPE svg PUBLIC "-//W3C//DTD SVG 1.1//EN" "http://www.w3.org/Graphics/SVG/1.1/DTD/svg11.dtd">
<svg version="1.1" id="图层_1" xmlns="http://www.w3.org/2000/svg" xmlns:xlink="http://www.w3.org/1999/xlink" x="0px" y="0px"
	 viewBox="0 0 1024 1024" style="enable-background:new 0 0 1024 1024;" xml:space="preserve">
<style type="text/css">
	.st0{clip-path:url(#SVGID_2_);fill:#333333;}
</style>
<g>
	<g>
		<defs>
			<rect id="SVGID_1_" x="134.232" y="186.753" width="753.618" height="740.964"/>
		</defs>
		<clipPath id="SVGID_2_">
			<use xlink:href="#SVGID_1_"  style="overflow:visible;"/>
		</clipPath>
		<path class="st0" d="M744.343,419.252L583.001,549.781L412.306,433.94c-8.435-5.717-19.681-4.954-27.268,1.849L248.64,558.502
			c-6.585,5.088-9.765,13.434-8.244,21.619c1.522,8.181,7.492,14.825,15.469,17.209c7.972,2.38,16.611,0.102,22.371-5.907
			l123.502-111.082l169.901,115.312c8.085,5.507,18.83,5.055,26.424-1.113l174.128-140.835c6.613-4.834,10.024-12.916,8.876-21.026
			c-1.147-8.11-6.67-14.928-14.363-17.739c-7.694-2.81-16.312-1.151-22.414,4.312H744.343z M744.343,419.252"/>
		<path class="st0" d="M837.457,242.268H533.062v-32.925c0.029-6.003-2.337-11.768-6.57-16.026
			c-4.237-4.255-9.992-6.645-15.995-6.645c-12.092,0.23-21.774,10.102-21.774,22.195v33.401H184.327
			c-13.315,0-26.085,5.289-35.498,14.702c-9.417,9.417-14.706,22.187-14.706,35.503v413.789c0,27.741,22.46,50.204,50.204,50.204
			h304.396v25.312L351.163,886.045c-6.942,4.541-10.769,12.573-9.928,20.824c0.843,8.251,6.218,15.349,13.932,18.392
			c7.715,3.047,16.485,1.536,22.738-3.916l110.817-84.025c0,0,7.241-5.233,13.477-9.565c5.169-3.626,12.058-3.626,17.226,0
			l13.636,9.617l110.821,83.973c4.664,3.58,10.564,5.144,16.39,4.353c5.826-0.794,11.093-3.884,14.628-8.583
			c7.404-9.748,5.512-23.653-4.227-31.071L533.062,781.778v-25.26h304.396c13.336,0.014,26.124-5.278,35.555-14.705
			c9.427-9.427,14.716-22.219,14.701-35.551V292.472c0-13.315-5.289-26.086-14.701-35.503c-9.417-9.413-22.188-14.702-35.502-14.702
			H837.457z M843.431,706.261c0,3.277-2.645,5.918-5.974,5.918H184.274c-3.248-0.029-5.864-2.669-5.864-5.918V292.472
			c0-3.224,2.641-5.868,5.918-5.868h653.183c3.223,0,5.92,2.644,5.92,5.92V706.261z M843.431,706.261"/>
	</g>
</g>
</svg>
