<?xml version="1.0" encoding="utf-8"?>
<!-- Generator: Adobe Illustrator 18.0.0, SVG Export Plug-In . SVG Version: 6.00 Build 0)  -->
<!DOCTYPE svg PUBLIC "-//W3C//DTD SVG 1.1//EN" "http://www.w3.org/Graphics/SVG/1.1/DTD/svg11.dtd">
<svg version="1.1" id="图层_1" xmlns="http://www.w3.org/2000/svg" xmlns:xlink="http://www.w3.org/1999/xlink" x="0px" y="0px"
	 viewBox="0 0 1024 1024" style="enable-background:new 0 0 1024 1024;" xml:space="preserve">
<style type="text/css">
	.st0{clip-path:url(#SVGID_2_);}
</style>
<g>
	<g>
		<defs>
			<rect id="SVGID_1_" x="104.514" y="73.868" width="812.81" height="664.096"/>
		</defs>
		<clipPath id="SVGID_2_">
			<use xlink:href="#SVGID_1_"  style="overflow:visible;"/>
		</clipPath>
		<path class="st0" d="M852.452,737.013H168.512c-35.35,0-64.117-28.767-64.117-64.117v-85.495c0-11.797,9.573-21.37,21.374-21.37
			c11.796,0,21.369,9.573,21.369,21.37v85.495c0,11.796,9.577,21.37,21.374,21.37h683.939c11.797,0,21.37-9.574,21.37-21.37v-85.495
			c0-11.797,9.577-21.37,21.374-21.37c11.796,0,21.373,9.573,21.373,21.37v85.495C916.569,708.246,887.803,737.013,852.452,737.013
			L852.452,737.013z M852.452,737.013"/>
	</g>
	<path d="M739.344,388.794l-213.729,213.73c-8.334,8.334-21.885,8.334-30.223,0l-213.729-213.73c-8.334-8.334-8.334-21.889,0-30.223
		c8.334-8.334,21.885-8.334,30.223,0L489.11,535.796V95.813c0-11.801,9.573-21.374,21.37-21.374c11.8,0,21.373,9.573,21.373,21.374
		v439.983l177.225-177.225c4.191-4.191,9.662-6.239,15.131-6.239c5.673,0,11.111,2.243,15.134,6.239
		C747.679,366.905,747.679,380.456,739.344,388.794L739.344,388.794z M739.344,388.794"/>
</g>
</svg>
