<?xml version="1.0" encoding="utf-8"?>
<!-- Generator: Adobe Illustrator 18.0.0, SVG Export Plug-In . SVG Version: 6.00 Build 0)  -->
<!DOCTYPE svg PUBLIC "-//W3C//DTD SVG 1.1//EN" "http://www.w3.org/Graphics/SVG/1.1/DTD/svg11.dtd">
<svg version="1.1" id="图层_1" xmlns="http://www.w3.org/2000/svg" xmlns:xlink="http://www.w3.org/1999/xlink" x="0px" y="0px"
	 viewBox="0 0 1024 1024" style="enable-background:new 0 0 1024 1024;" xml:space="preserve">
<style type="text/css">
	.st0{clip-path:url(#SVGID_2_);}
</style>
<g>
	<g>
		<defs>
			<rect id="SVGID_1_" x="188.598" y="188.119" width="644.563" height="648.482"/>
		</defs>
		<clipPath id="SVGID_2_">
			<use xlink:href="#SVGID_1_"  style="overflow:visible;"/>
		</clipPath>
		<path class="st0" d="M549.549,512.187l275.57-276.866c10.685-10.728,10.642-28.108-0.089-38.794
			c-10.751-10.71-28.108-10.646-38.794,0.086L510.842,473.279L235.469,196.635c-10.685-10.754-28.044-10.796-38.797-0.087
			c-10.728,10.686-10.772,28.044-0.087,38.797l275.57,276.841l-275.57,276.838c-10.685,10.732-10.642,28.112,0.087,38.797
			c5.355,5.333,12.355,7.987,19.355,7.987c7.043,0,14.087-2.698,19.441-8.074L510.863,551.07l275.394,276.665
			c5.352,5.398,12.399,8.074,19.442,8.074c7,0,14-2.654,19.352-7.987c10.732-10.686,10.775-28.044,0.089-38.797L549.549,512.187z
			 M549.549,512.187"/>
	</g>
</g>
</svg>
