<?xml version="1.0" encoding="utf-8"?>
<!-- Generator: Adobe Illustrator 18.0.0, SVG Export Plug-In . SVG Version: 6.00 Build 0)  -->
<!DOCTYPE svg PUBLIC "-//W3C//DTD SVG 1.1//EN" "http://www.w3.org/Graphics/SVG/1.1/DTD/svg11.dtd">
<svg version="1.1" id="图层_1" xmlns="http://www.w3.org/2000/svg" xmlns:xlink="http://www.w3.org/1999/xlink" x="0px" y="0px"
	 viewBox="0 0 1024 1024" style="enable-background:new 0 0 1024 1024;" xml:space="preserve">
<style type="text/css">
	.st0{fill:#0078D7;}
</style>
<g>
	<g>
		<path class="st0" d="M945.755,476.666L788.977,795.592c-8.011,16.072-23.874,26.757-41.779,28.139H244.703
			c-6.922,0.587-13.544-2.94-16.92-9.013c-3.375-6.072-2.877-13.559,1.274-19.127l156.779-318.926
			c8.011-16.075,23.874-26.759,41.781-28.142h502.492c6.923-0.587,13.545,2.94,16.923,9.013
			C950.408,463.608,949.907,471.095,945.755,476.666L945.755,476.666z M819.836,392.244H352.331L163.227,786.21V260.922
			c0-20.721,16.8-37.521,37.521-37.521h243.883c20.721,0,37.521,16.8,37.521,37.521v37.519h337.683
			c20.725,0,37.522,16.799,37.522,37.521v18.761C857.357,375.445,840.561,392.244,819.836,392.244L819.836,392.244z
			 M819.836,392.244"/>
	</g>
</g>
</svg>
